<svg width="24" height="24" viewBox="0 0 24 24" fill="none" xmlns="http://www.w3.org/2000/svg">
<path d="M9.5 2C8.67157 2 8 2.67157 8 3.5V4.5C8 5.32843 8.67157 6 9.5 6H14.5C15.3284 6 16 5.32843 16 4.5V3.5C16 2.67157 15.3284 2 14.5 2H9.5Z" fill="#757575"/>
<path fill-rule="evenodd" clip-rule="evenodd" d="M6.5 4.03613C5.24209 4.1067 4.44798 4.30715 3.87868 4.87645C3 5.75513 3 7.16934 3 9.99777V15.9978C3 18.8262 3 20.2404 3.87868 21.1191C4.75736 21.9978 6.17157 21.9978 9 21.9978H15C17.8284 21.9978 19.2426 21.9978 20.1213 21.1191C21 20.2404 21 18.8262 21 15.9978V9.99777C21 7.16934 21 5.75513 20.1213 4.87645C19.552 4.30715 18.7579 4.1067 17.5 4.03613V4.49951C17.5 6.15636 16.1569 7.49951 14.5 7.49951H9.5C7.84315 7.49951 6.5 6.15636 6.5 4.49951V4.03613ZM7 13.7495C6.58579 13.7495 6.25 14.0853 6.25 14.4995C6.25 14.9137 6.58579 15.2495 7 15.2495H15C15.4142 15.2495 15.75 14.9137 15.75 14.4995C15.75 14.0853 15.4142 13.7495 15 13.7495H7ZM7 17.2495C6.58579 17.2495 6.25 17.5853 6.25 17.9995C6.25 18.4137 6.58579 18.7495 7 18.7495H12.5C12.9142 18.7495 13.25 18.4137 13.25 17.9995C13.25 17.5853 12.9142 17.2495 12.5 17.2495H7Z" fill="#757575"/>
<path d="M13.8966 9.59092C14.0345 9.45574 14.0345 9.23657 13.8966 9.10139C13.7588 8.9662 13.5354 8.9662 13.3975 9.10139L11.2941 11.1643L10.6025 10.486C10.4647 10.3508 10.2412 10.3508 10.1034 10.486C9.96554 10.6212 9.96554 10.8403 10.1034 10.9755L11.0446 11.8986C11.1824 12.0338 11.4058 12.0338 11.5437 11.8986L13.8966 9.59092Z" fill="white"/>
</svg>
