<svg width="24" height="24" viewBox="0 0 24 24" fill="none" xmlns="http://www.w3.org/2000/svg">
<g clip-path="url(#clip0_54_3262)">
<path d="M21.6428 11.1963H15.2142C14.7704 11.1963 14.4106 11.5561 14.4106 11.9999V21.6427C14.4106 22.0864 14.7704 22.4463 15.2142 22.4463H21.6428C22.0865 22.4463 22.4464 22.0864 22.4464 21.6427V11.9999C22.4464 11.5561 22.0865 11.1963 21.6428 11.1963Z" fill="#6774DF" stroke="#6774DF" stroke-width="1.5" stroke-linecap="round" stroke-linejoin="round"/>
<path d="M21.6428 1.55371H15.2142C14.7704 1.55371 14.4106 1.91348 14.4106 2.35728V5.58764C14.4106 6.03144 14.7704 6.39121 15.2142 6.39121H21.6428C22.0865 6.39121 22.4464 6.03144 22.4464 5.58764V2.35728C22.4464 1.91348 22.0865 1.55371 21.6428 1.55371Z" fill="#6774DF" stroke="#6774DF" stroke-width="1.5" stroke-linecap="round" stroke-linejoin="round"/>
<path d="M8.78561 1.55371H2.35704C1.91324 1.55371 1.55347 1.91348 1.55347 2.35728V12.0001C1.55347 12.4439 1.91324 12.8037 2.35704 12.8037H8.78561C9.22941 12.8037 9.58918 12.4439 9.58918 12.0001V2.35728C9.58918 1.91348 9.22941 1.55371 8.78561 1.55371Z" fill="#6774DF" stroke="#6774DF" stroke-width="1.5" stroke-linecap="round" stroke-linejoin="round"/>
<path d="M8.78561 17.6094H2.35704C1.91324 17.6094 1.55347 17.9691 1.55347 18.4129V21.6433C1.55347 22.087 1.91324 22.4469 2.35704 22.4469H8.78561C9.22941 22.4469 9.58918 22.087 9.58918 21.6433V18.4129C9.58918 17.9691 9.22941 17.6094 8.78561 17.6094Z" fill="#6774DF" stroke="#6774DF" stroke-width="1.5" stroke-linecap="round" stroke-linejoin="round"/>
</g>
<defs>
<clipPath id="clip0_54_3262">
<rect width="24" height="24" fill="white"/>
</clipPath>
</defs>
</svg>
