<svg width="24" height="24" viewBox="0 0 24 24" fill="none" xmlns="http://www.w3.org/2000/svg">
<path d="M2 11.5C2 12.7476 2.24572 13.9829 2.72314 15.1355C3.20056 16.2881 3.90033 17.3354 4.78249 18.2175C5.66464 19.0997 6.71191 19.7994 7.86451 20.2769C9.0171 20.7543 10.2524 21 11.5 21C12.7476 21 13.9829 20.7543 15.1355 20.2769C16.2881 19.7994 17.3354 19.0997 18.2175 18.2175C19.0997 17.3354 19.7994 16.2881 20.2769 15.1355C20.7543 13.9829 21 12.7476 21 11.5C21 10.2524 20.7543 9.0171 20.2769 7.86451C19.7994 6.71191 19.0997 5.66464 18.2175 4.78249C17.3354 3.90033 16.2881 3.20056 15.1355 2.72314C13.9829 2.24572 12.7476 2 11.5 2C10.2524 2 9.0171 2.24572 7.86451 2.72314C6.71191 3.20056 5.66464 3.90033 4.78249 4.78249C3.90033 5.66464 3.20056 6.71191 2.72314 7.86451C2.24572 9.0171 2 10.2524 2 11.5Z" stroke="white" stroke-width="1.5"/>
<path d="M18.5 18.5L22 22" stroke="white" stroke-width="1.5" stroke-linecap="round"/>
</svg>
