<svg width="24" height="24" viewBox="0 0 24 24" fill="none" xmlns="http://www.w3.org/2000/svg">
<path d="M8 6C8 7.06087 8.42143 8.07828 9.17157 8.82843C9.92172 9.57857 10.9391 10 12 10C13.0609 10 14.0783 9.57857 14.8284 8.82843C15.5786 8.07828 16 7.06087 16 6C16 4.93913 15.5786 3.92172 14.8284 3.17157C14.0783 2.42143 13.0609 2 12 2C10.9391 2 9.92172 2.42143 9.17157 3.17157C8.42143 3.92172 8 4.93913 8 6Z" stroke="#757575" stroke-width="1.5"/>
<path d="M5 17C5 17.5253 5.18106 18.0454 5.53284 18.5307C5.88463 19.016 6.40024 19.457 7.05025 19.8284C7.70026 20.1999 8.47194 20.4945 9.32122 20.6955C10.1705 20.8965 11.0807 21 12 21C12.9193 21 13.8295 20.8965 14.6788 20.6955C15.5281 20.4945 16.2997 20.1999 16.9497 19.8284C17.5998 19.457 18.1154 19.016 18.4672 18.5307C18.8189 18.0454 19 17.5253 19 17C19 16.4747 18.8189 15.9546 18.4672 15.4693C18.1154 14.984 17.5998 14.543 16.9497 14.1716C16.2997 13.8001 15.5281 13.5055 14.6788 13.3045C13.8295 13.1035 12.9193 13 12 13C11.0807 13 10.1705 13.1035 9.32122 13.3045C8.47194 13.5055 7.70026 13.8001 7.05025 14.1716C6.40024 14.543 5.88463 14.984 5.53284 15.4693C5.18106 15.9546 5 16.4747 5 17Z" stroke="#757575" stroke-width="1.5"/>
</svg>
